<svg viewBox="0 0 21 20" fill="none" xmlns="http://www.w3.org/2000/svg">
<path d="M5.50014 3.33337H8.00014C8.00014 3.33337 8.00014 5.83337 10.5001 5.83337C13.0001 5.83337 13.0001 3.33337 13.0001 3.33337H15.5001M15.5001 9.16671V16.1667C15.5001 16.2993 15.4475 16.4265 15.3537 16.5203C15.2599 16.614 15.1327 16.6667 15.0001 16.6667H6.00014C5.86753 16.6667 5.74035 16.614 5.64658 16.5203C5.55282 16.4265 5.50014 16.2993 5.50014 16.1667V9.16671M15.5001 3.33337L19.2026 4.81421C19.3257 4.8635 19.4242 4.95967 19.4764 5.08157C19.5286 5.20346 19.5303 5.3411 19.481 5.46421L18.126 8.85254C18.0888 8.94529 18.0248 9.02478 17.942 9.08078C17.8593 9.13677 17.7617 9.1667 17.6618 9.16671H15.5001M5.50014 3.33337L1.79764 4.81421C1.67453 4.8635 1.57605 4.95967 1.52386 5.08157C1.47166 5.20346 1.47002 5.3411 1.5193 5.46421L2.8743 8.85254C2.91143 8.94529 2.97549 9.02478 3.05823 9.08078C3.14096 9.13677 3.23857 9.1667 3.33847 9.16671H5.50014" stroke="currentColor" stroke-width="0.9" stroke-linecap="round" stroke-linejoin="round"/>
<path d="M7.59287 10.6404C7.28569 10.6404 7.11474 10.2874 7.3038 10.0467L8.76474 8.19318C8.80862 8.13798 8.87463 8.10631 8.94443 8.10626L9.57236 8.10626C9.7063 8.10642 9.77867 8.26083 9.69736 8.36407L8.56259 9.80255L13.6163 9.80255C13.7041 9.80256 13.7755 9.87397 13.7755 9.96173L13.7755 10.4813C13.7754 10.569 13.7041 10.6404 13.6163 10.6404L7.59287 10.6404ZM11.4278 14.3797C11.2939 14.3795 11.2216 14.2251 11.3028 14.1219L12.4376 12.6834L7.38388 12.6834C7.29616 12.6834 7.22482 12.6119 7.2247 12.5242L7.2247 12.0047C7.2247 11.9169 7.29609 11.8455 7.38388 11.8455L13.4083 11.8455C13.7149 11.8455 13.8854 12.1987 13.6964 12.4393L12.2354 14.2928L12.1983 14.3299C12.1581 14.362 12.1081 14.3797 12.0558 14.3797L11.4278 14.3797Z" fill="currentColor" stroke="currentColor" stroke-width="0.18"/>
</svg>
