<svg viewBox="0 0 21 20" fill="none" xmlns="http://www.w3.org/2000/svg">
<path d="M1.75 3.4375C1.75 2.23 2.73 1.25 3.9375 1.25H17.0625C18.27 1.25 19.25 2.23 19.25 3.4375V12.8125C19.25 13.3927 19.0195 13.9491 18.6093 14.3593C18.1991 14.7695 17.6427 15 17.0625 15H11.825L8.60875 18.2162C8.35381 18.4702 8.0294 18.643 7.6764 18.7129C7.3234 18.7828 6.95761 18.7466 6.62514 18.6089C6.29268 18.4712 6.00841 18.2382 5.80818 17.9392C5.60795 17.6402 5.50072 17.2886 5.5 16.9288V15H3.9375C3.35734 15 2.80094 14.7695 2.3907 14.3593C1.98047 13.9491 1.75 13.3927 1.75 12.8125V3.4375ZM3.9375 3.125C3.85462 3.125 3.77513 3.15792 3.71653 3.21653C3.65792 3.27513 3.625 3.35462 3.625 3.4375V12.8125C3.625 12.985 3.765 13.125 3.9375 13.125H6.4375C6.68614 13.125 6.9246 13.2238 7.10041 13.3996C7.27623 13.5754 7.375 13.8139 7.375 14.0625V16.8L10.775 13.4C10.8619 13.3129 10.9652 13.2437 11.0789 13.1965C11.1925 13.1494 11.3144 13.125 11.4375 13.125H17.0625C17.1454 13.125 17.2249 13.0921 17.2835 13.0335C17.3421 12.9749 17.375 12.8954 17.375 12.8125V3.4375C17.375 3.35462 17.3421 3.27513 17.2835 3.21653C17.2249 3.15792 17.1454 3.125 17.0625 3.125H3.9375Z" fill="currentColor"/>
</svg>
