<svg width="20" height="20" viewBox="0 0 20 20" fill="none" xmlns="http://www.w3.org/2000/svg">
<path d="M3.4165 17.5C3.4165 17.9142 3.75229 18.25 4.1665 18.25C4.58072 18.25 4.9165 17.9142 4.9165 17.5H3.4165ZM15.1822 5.2392L14.7573 4.62116L14.7573 4.62116L15.1822 5.2392ZM14.9479 5.40032L15.3728 6.01835L15.3728 6.01835L14.9479 5.40032ZM14.9479 8.76635L15.3728 8.14831L15.3728 8.14831L14.9479 8.76635ZM15.1822 8.92747L14.7573 9.5455L14.7573 9.5455L15.1822 8.92747ZM4.9165 17.5L4.9165 4.5L3.4165 4.5L3.4165 17.5H4.9165ZM6.1665 3.25H14.3315V1.75H6.1665V3.25ZM14.3315 10.9167H4.16651V12.4167H14.3315V10.9167ZM14.7573 4.62116L14.523 4.78229L15.3728 6.01835L15.6071 5.85723L14.7573 4.62116ZM14.523 9.38438L14.7573 9.5455L15.6071 8.30944L15.3728 8.14831L14.523 9.38438ZM14.7573 9.5455C14.9613 9.68574 15.0832 9.91741 15.0832 10.1649H16.5832C16.5832 9.42347 16.2181 8.72951 15.6071 8.30944L14.7573 9.5455ZM15.0832 4.00172C15.0832 4.24926 14.9613 4.48093 14.7573 4.62116L15.6071 5.85723C16.2181 5.43716 16.5832 4.7432 16.5832 4.00172H15.0832ZM14.523 4.78229C12.9091 5.89184 12.9091 8.27483 14.523 9.38438L15.3728 8.14831C14.6258 7.63479 14.6258 6.53188 15.3728 6.01835L14.523 4.78229ZM14.3315 12.4167C15.575 12.4167 16.5832 11.4085 16.5832 10.1649H15.0832C15.0832 10.5801 14.7466 10.9167 14.3315 10.9167V12.4167ZM14.3315 3.25C14.7466 3.25 15.0832 3.58656 15.0832 4.00172H16.5832C16.5832 2.75813 15.575 1.75 14.3315 1.75V3.25ZM4.9165 4.5C4.9165 4.00739 4.9181 3.71339 4.94643 3.50266C4.95941 3.40611 4.9747 3.35774 4.98366 3.33596C4.98574 3.33092 4.98736 3.3276 4.98837 3.32567C4.98936 3.32376 4.98992 3.32292 4.98997 3.32283C4.99002 3.32277 4.98986 3.323 4.98958 3.32335C4.98929 3.3237 4.98927 3.32368 4.98973 3.32322L3.92907 2.26256C3.62004 2.57159 3.5076 2.94731 3.4598 3.30279C3.41491 3.6367 3.4165 4.0498 3.4165 4.5L4.9165 4.5ZM6.1665 1.75C5.7163 1.75 5.3032 1.74841 4.9693 1.7933C4.61382 1.84109 4.23809 1.95354 3.92907 2.26256L4.98973 3.32322C4.99018 3.32277 4.9902 3.32279 4.98986 3.32307C4.98951 3.32335 4.98927 3.32351 4.98934 3.32347C4.98942 3.32341 4.99027 3.32286 4.99218 3.32186C4.99411 3.32085 4.99742 3.31923 5.00247 3.31716C5.02425 3.3082 5.07261 3.29291 5.16917 3.27992C5.37989 3.25159 5.6739 3.25 6.1665 3.25V1.75Z" fill="#BD0BEA"/>
</svg>
