<svg viewBox="0 0 20 20" fill="none" xmlns="http://www.w3.org/2000/svg">
<path d="M10.0003 1.66663C8.90598 1.66663 7.82234 1.88217 6.8113 2.30096C5.80025 2.71975 4.88159 3.33358 4.10777 4.1074C2.54497 5.67021 1.66699 7.78982 1.66699 9.99996C1.66699 13.6833 4.05866 16.8083 7.36699 17.9166C7.78366 17.9833 7.91699 17.725 7.91699 17.5V16.0916C5.60866 16.5916 5.11699 14.975 5.11699 14.975C4.73366 14.0083 4.19199 13.75 4.19199 13.75C3.43366 13.2333 4.25033 13.25 4.25033 13.25C5.08366 13.3083 5.52533 14.1083 5.52533 14.1083C6.25033 15.375 7.47533 15 7.95033 14.8C8.02533 14.2583 8.24199 13.8916 8.47533 13.6833C6.62533 13.475 4.68366 12.7583 4.68366 9.58329C4.68366 8.65829 5.00033 7.91663 5.54199 7.32496C5.45866 7.11663 5.16699 6.24996 5.62533 5.12496C5.62533 5.12496 6.32533 4.89996 7.91699 5.97496C8.57533 5.79163 9.29199 5.69996 10.0003 5.69996C10.7087 5.69996 11.4253 5.79163 12.0837 5.97496C13.6753 4.89996 14.3753 5.12496 14.3753 5.12496C14.8337 6.24996 14.542 7.11663 14.4587 7.32496C15.0003 7.91663 15.317 8.65829 15.317 9.58329C15.317 12.7666 13.367 13.4666 11.5087 13.675C11.8087 13.9333 12.0837 14.4416 12.0837 15.2166V17.5C12.0837 17.725 12.217 17.9916 12.642 17.9166C15.9503 16.8 18.3337 13.6833 18.3337 9.99996C18.3337 8.90561 18.1181 7.82198 17.6993 6.81093C17.2805 5.79988 16.6667 4.88122 15.8929 4.1074C15.1191 3.33358 14.2004 2.71975 13.1894 2.30096C12.1783 1.88217 11.0947 1.66663 10.0003 1.66663Z" fill="currentColor"/>
</svg>
