<svg viewBox="0 0 24 24" fill="none" xmlns="http://www.w3.org/2000/svg">
<path d="M4.58818 7.7767L5.31435 7.96429L4.58818 7.7767ZM8.08799 4.48265L8.22926 5.21923L8.08799 4.48265ZM10.1526 13.2009L9.94105 12.4814L10.1526 13.2009ZM11.2594 14.3076L10.5398 14.0961L11.2594 14.3076ZM16.6836 19.8721L16.8712 20.5983L16.6836 19.8721ZM19.9777 16.3723L20.7142 16.5136L19.9777 16.3723ZM21.7323 7.22324L20.9957 7.08198L21.7323 7.22324ZM17.237 2.72801L17.0958 1.99143L17.237 2.72801ZM6.0052 17.3945C5.71231 17.6874 5.71231 18.1622 6.0052 18.4551C6.2981 18.748 6.77297 18.748 7.06586 18.4551L6.0052 17.3945ZM8.48008 17.0409C8.77297 16.748 8.77297 16.2731 8.48008 15.9802C8.18718 15.6874 7.71231 15.6874 7.41942 15.9802L8.48008 17.0409ZM6.71231 20.93C6.41942 21.2229 6.41942 21.6978 6.71231 21.9907C7.0052 22.2836 7.48008 22.2836 7.77297 21.9907L6.71231 20.93ZM9.18718 20.5764C9.48008 20.2836 9.48008 19.8087 9.18718 19.5158C8.89429 19.2229 8.41942 19.2229 8.12652 19.5158L9.18718 20.5764ZM2.46967 16.6874C2.17678 16.9802 2.17678 17.4551 2.46967 17.748C2.76256 18.0409 3.23744 18.0409 3.53033 17.748L2.46967 16.6874ZM4.94454 16.3338C5.23744 16.0409 5.23744 15.566 4.94454 15.2731C4.65165 14.9802 4.17678 14.9802 3.88388 15.2731L4.94454 16.3338ZM20.9957 7.08198L19.2411 16.2311L20.7142 16.5136L22.4689 7.36451L20.9957 7.08198ZM8.22926 5.21923L17.3783 3.46458L17.0958 1.99143L7.94673 3.74607L8.22926 5.21923ZM5.31435 7.96429C5.67585 6.56486 6.81437 5.49058 8.22926 5.21923L7.94673 3.74607C5.95789 4.1275 4.36735 5.63295 3.86202 7.58912L5.31435 7.96429ZM9.94105 12.4814C7.18864 13.2908 4.59178 10.7614 5.31435 7.96429L3.86202 7.58912C2.85311 11.4947 6.47515 15.0641 10.3642 13.9205L9.94105 12.4814ZM11.9789 14.5192C12.3454 13.2729 11.1874 12.1149 9.94105 12.4814L10.3642 13.9205C10.4716 13.8889 10.5714 13.9887 10.5398 14.0961L11.9789 14.5192ZM16.496 19.146C13.6989 19.8685 11.1695 17.2717 11.9789 14.5192L10.5398 14.0961C9.39617 17.9852 12.9656 21.6072 16.8712 20.5983L16.496 19.146ZM19.2411 16.2311C18.9697 17.6459 17.8955 18.7845 16.496 19.146L16.8712 20.5983C18.8274 20.093 20.3328 18.5024 20.7142 16.5136L19.2411 16.2311ZM22.4689 7.36451C23.08 4.17791 20.2824 1.38029 17.0958 1.99143L17.3783 3.46458C19.5237 3.05314 21.4072 4.93662 20.9957 7.08198L22.4689 7.36451ZM7.06586 18.4551L8.48008 17.0409L7.41942 15.9802L6.0052 17.3945L7.06586 18.4551ZM7.77297 21.9907L9.18718 20.5764L8.12652 19.5158L6.71231 20.93L7.77297 21.9907ZM3.53033 17.748L4.94454 16.3338L3.88388 15.2731L2.46967 16.6874L3.53033 17.748Z" fill="currentColor"/>
</svg>
