<svg viewBox="0 0 25 24" fill="none" xmlns="http://www.w3.org/2000/svg">
<path d="M13.5745 22.08C19.0439 22.08 23.4776 17.568 23.4776 12C23.4776 6.43204 19.0439 1.92004 13.5745 1.92004H12.1268V22.08H13.5745Z" fill="#F18817"/>
<path d="M12.3147 22.08C17.8818 22.08 22.3947 17.5671 22.3947 12C22.3947 6.43301 17.8818 1.92004 12.3147 1.92004C6.74771 1.92004 2.23474 6.43301 2.23474 12C2.23474 17.5671 6.74771 22.08 12.3147 22.08Z" fill="#FBE101"/>
<path d="M12.3148 19.9969C16.7313 19.9969 20.3116 16.4166 20.3116 12.0001C20.3116 7.58359 16.7313 4.0033 12.3148 4.0033C7.89828 4.0033 4.31799 7.58359 4.31799 12.0001C4.31799 16.4166 7.89828 19.9969 12.3148 19.9969Z" fill="#F8C805"/>
<g filter="url(#filter0_dd_1501_1051)">
<path d="M13.4817 16.094V14.9521C14.468 14.3211 15.3346 12.9007 15.3346 11.268C15.3346 9.64117 14.2758 8.07627 12.4229 8.07627C10.57 8.07627 9.51122 9.64118 9.51122 11.2685C9.51122 12.9007 10.3778 14.3211 11.3641 14.9521V16.094H7.65833V15.0352H10.1783C9.0697 14.2438 8.18772 12.9118 8.18772 11.268C8.18772 8.8132 10.0406 7.09424 12.4229 7.09424C14.8052 7.09424 16.6581 8.8132 16.6581 11.268C16.6581 12.9118 15.7761 14.2438 14.6676 15.0352H17.1875V16.094H13.4817Z" fill="#FBE101"/>
</g>
<g style="mix-blend-mode:screen" opacity="0.2">
<path d="M4.74951 9.40347L14.9116 19.5655C15.9312 19.215 16.8693 18.6619 17.6694 17.9393L6.37623 6.64563C5.65345 7.44572 5.1001 8.38384 4.74951 9.40347ZM20.0963 13.85L10.4651 4.21875C9.84512 4.36543 9.24504 4.58621 8.67783 4.87635L19.4387 15.637C19.7288 15.0698 19.9496 14.4699 20.0963 13.85Z" fill="white"/>
</g>
<g style="mix-blend-mode:screen" opacity="0.5">
<path d="M2.75218 12C2.75218 6.51964 7.12666 2.06068 12.5739 1.9234C12.4877 1.92116 12.4013 1.92004 12.3147 1.92004C6.74674 1.92004 2.23474 6.43204 2.23474 12C2.23474 17.568 6.74674 22.08 12.3147 22.08C12.4015 22.08 12.4879 22.0789 12.5739 22.0767C7.12666 21.9394 2.75218 17.4804 2.75218 12Z" fill="white"/>
</g>
<g style="mix-blend-mode:screen">
<path d="M15.781 5.09962C19.645 7.39018 20.923 12.3805 18.6325 16.2459C17.7316 17.7714 16.3554 18.9595 14.7147 19.628C16.596 19.039 18.1921 17.7734 19.1946 16.076C21.446 12.2763 20.191 7.37098 16.3916 5.11954C15.1999 4.41123 13.8439 4.02652 12.4578 4.00354C13.6321 4.12248 14.7663 4.49656 15.781 5.09962Z" fill="white"/>
</g>
<path d="M8.23813 18.8796C9.94429 19.8942 11.9678 20.2351 13.9122 19.8358C12.2229 20.0017 10.5247 19.6233 9.06565 18.7558C5.26525 16.5043 4.01029 11.599 6.26197 7.80001C6.83025 6.83835 7.59416 6.00678 8.50426 5.35913C9.41435 4.71149 10.4503 4.26221 11.5451 4.04041C9.09445 4.28041 6.78661 5.64265 5.43517 7.92313C3.18421 11.7228 4.43869 16.6282 8.23813 18.8796Z" fill="#F18817"/>
<defs>
<filter id="filter0_dd_1501_1051" x="7.45833" y="6.89424" width="9.92917" height="9.39976" filterUnits="userSpaceOnUse" color-interpolation-filters="sRGB">
<feFlood flood-opacity="0" result="BackgroundImageFix"/>
<feColorMatrix in="SourceAlpha" type="matrix" values="0 0 0 0 0 0 0 0 0 0 0 0 0 0 0 0 0 0 127 0" result="hardAlpha"/>
<feOffset dx="-0.2" dy="-0.2"/>
<feComposite in2="hardAlpha" operator="out"/>
<feColorMatrix type="matrix" values="0 0 0 0 1 0 0 0 0 1 0 0 0 0 1 0 0 0 1 0"/>
<feBlend mode="normal" in2="BackgroundImageFix" result="effect1_dropShadow_1501_1051"/>
<feColorMatrix in="SourceAlpha" type="matrix" values="0 0 0 0 0 0 0 0 0 0 0 0 0 0 0 0 0 0 127 0" result="hardAlpha"/>
<feOffset dx="0.2" dy="0.2"/>
<feComposite in2="hardAlpha" operator="out"/>
<feColorMatrix type="matrix" values="0 0 0 0 0.945098 0 0 0 0 0.533333 0 0 0 0 0.0901961 0 0 0 1 0"/>
<feBlend mode="normal" in2="effect1_dropShadow_1501_1051" result="effect2_dropShadow_1501_1051"/>
<feBlend mode="normal" in="SourceGraphic" in2="effect2_dropShadow_1501_1051" result="shape"/>
</filter>
</defs>
</svg>
