<svg viewBox="0 0 20 20" fill="none" xmlns="http://www.w3.org/2000/svg">
<path d="M5.07248 17.9714L4.77392 18.6595L4.77392 18.6595L5.07248 17.9714ZM2.81749 15.6091L2.12003 15.8848L2.12003 15.8848L2.81749 15.6091ZM17.1832 15.6091L17.8806 15.8848L17.8806 15.8848L17.1832 15.6091ZM14.9282 17.9714L15.2267 18.6595L15.2267 18.6595L14.9282 17.9714ZM2.50033 9.55373L3.24738 9.62011L3.28409 9.20699L2.9537 8.95627L2.50033 9.55373ZM16.2503 5.80372L16.2503 5.05372L16.2503 5.05372L16.2503 5.80372ZM10.6401 4.87796L11.1705 5.40829L11.1705 5.40829L10.6401 4.87796ZM12.4079 3.11019L12.9382 3.64052L12.9382 3.64052L12.4079 3.11019ZM15.3542 3.11019L14.8238 3.64052L14.8238 3.64052L15.3542 3.11019ZM15.5699 5.80371L15.5699 6.55371L15.9527 6.55368L16.1773 6.24372L15.5699 5.80371ZM9.49124 4.87797L8.96091 5.4083L8.96091 5.4083L9.49124 4.87797ZM7.72348 3.11021L7.19315 3.64054L7.19315 3.64054L7.72348 3.11021ZM4.7772 3.11021L5.30753 3.64054L5.30753 3.64054L4.7772 3.11021ZM10.0003 17.4704L10.7503 17.4704L10.7503 17.4704L10.0003 17.4704ZM2.47326 9.53319L2.01313 10.1255L2.01313 10.1255L2.47326 9.53319ZM17.4465 9.59298L17.0154 8.97927L17.0154 8.97927L17.4465 9.59298ZM8.75033 18.3037V17.5537C7.76887 17.5537 7.07212 17.5533 6.52398 17.5141C5.9833 17.4754 5.64395 17.4019 5.37103 17.2834L5.07248 17.9714L4.77392 18.6595C5.26672 18.8733 5.79558 18.9659 6.41704 19.0103C7.03104 19.0542 7.79036 19.0537 8.75033 19.0537V18.3037ZM2.50035 11.7561H1.75035C1.75035 12.7632 1.74998 13.5545 1.79157 14.1932C1.83356 14.8381 1.92062 15.3805 2.12003 15.8848L2.81749 15.6091L3.51496 15.3333C3.3972 15.0355 3.32569 14.6684 3.2884 14.0957C3.25072 13.517 3.25035 12.7829 3.25035 11.7561H2.50035ZM5.07248 17.9714L5.37103 17.2834C4.53913 16.9224 3.86749 16.2249 3.51496 15.3333L2.81749 15.6091L2.12003 15.8848C2.61328 17.1324 3.56393 18.1344 4.77392 18.6595L5.07248 17.9714ZM17.5003 11.7561H16.7503C16.7503 12.7828 16.75 13.517 16.7123 14.0957C16.675 14.6683 16.6035 15.0355 16.4857 15.3333L17.1832 15.6091L17.8806 15.8848C18.08 15.3805 18.1671 14.8381 18.2091 14.1932C18.2507 13.5544 18.2503 12.7632 18.2503 11.7561H17.5003ZM11.2503 18.3037V19.0537C12.2103 19.0537 12.9696 19.0542 13.5836 19.0103C14.2051 18.9659 14.7339 18.8733 15.2267 18.6595L14.9282 17.9714L14.6296 17.2834C14.3567 17.4019 14.0174 17.4754 13.4767 17.5141C12.9285 17.5533 12.2318 17.5537 11.2503 17.5537V18.3037ZM17.1832 15.6091L16.4857 15.3333C16.1332 16.2249 15.4615 16.9224 14.6296 17.2834L14.9282 17.9714L15.2267 18.6595C16.4367 18.1344 17.3874 17.1324 17.8806 15.8848L17.1832 15.6091ZM2.50035 11.7561H3.25035C3.25035 10.5128 3.19354 10.2261 3.24738 9.62011L2.50033 9.55373L1.75327 9.48735C1.69255 10.1708 1.75035 10.7002 1.75035 11.7561H2.50035ZM16.2503 5.80372V6.55372C16.9867 6.55372 17.5837 7.15067 17.5837 7.88705H18.3337H19.0837C19.0837 6.32224 17.8151 5.05372 16.2503 5.05372V5.80372ZM3.75033 5.80372V5.05372C2.18552 5.05372 0.916992 6.32224 0.916992 7.88705H1.66699H2.41699C2.41699 7.15067 3.01395 6.55372 3.75033 6.55372V5.80372ZM10.6401 4.87796L11.1705 5.40829L12.9382 3.64052L12.4079 3.11019L11.8776 2.57986L10.1098 4.34763L10.6401 4.87796ZM12.4079 3.11019L12.9382 3.64052C13.4589 3.11983 14.3031 3.11983 14.8238 3.64052L15.3542 3.11019L15.8845 2.57986C14.778 1.47338 12.9841 1.47338 11.8776 2.57986L12.4079 3.11019ZM10.6401 4.87796L10.1098 4.34763C9.8495 4.60793 9.42656 5.05414 9.27649 5.60738L10.0003 5.80373L10.7242 6.00009C10.7581 5.87513 10.8983 5.6805 11.1705 5.40829L10.6401 4.87796ZM15.3542 3.11019L14.8238 3.64052C15.293 4.1097 15.3398 4.84294 14.9625 5.36369L15.5699 5.80371L16.1773 6.24372C16.9801 5.13553 16.8831 3.57844 15.8845 2.57986L15.3542 3.11019ZM9.49124 4.87797L10.0216 4.34764L8.25381 2.57988L7.72348 3.11021L7.19315 3.64054L8.96091 5.4083L9.49124 4.87797ZM7.72348 3.11021L8.25381 2.57988C7.14732 1.47339 5.35335 1.47339 4.24687 2.57988L4.7772 3.11021L5.30753 3.64054C5.82823 3.11984 6.67245 3.11984 7.19315 3.64054L7.72348 3.11021ZM9.49124 4.87797L8.96091 5.4083C9.10874 5.55612 9.20769 5.74649 9.27649 6.00009L10.0003 5.80373L10.7242 5.60738C10.609 5.18278 10.4063 4.73233 10.0216 4.34764L9.49124 4.87797ZM4.7772 3.11021L4.24687 2.57988C3.2483 3.57845 3.15127 5.13554 3.95411 6.24373L4.56147 5.80372L5.16884 5.3637C4.79157 4.84295 4.83835 4.10971 5.30753 3.64054L4.7772 3.11021ZM10.0003 5.80373L9.25033 5.80373L9.25033 17.4704L10.0003 17.4704L10.7503 17.4704L10.7503 5.80373L10.0003 5.80373ZM4.56147 5.80372L4.56147 6.55372L10.0003 6.55373L10.0003 5.80373L10.0003 5.05373L4.56148 5.05372L4.56147 5.80372ZM3.75033 9.97038V9.22038C3.44154 9.22038 3.15917 9.11634 2.9334 8.94093L2.47326 9.53319L2.01313 10.1255C2.49277 10.4981 3.09665 10.7204 3.75033 10.7204V9.97038ZM2.47326 9.53319L2.9334 8.94093C2.6178 8.69574 2.41699 8.31503 2.41699 7.88705H1.66699H0.916992C0.916992 8.79779 1.34753 9.60834 2.01313 10.1255L2.47326 9.53319ZM2.50033 9.55373L2.9537 8.95627L2.92663 8.93574L2.47326 9.53319L2.01989 10.1307L2.04696 10.1512L2.50033 9.55373ZM11.2503 18.3037V17.5537H10.0003V18.3037V19.0537H11.2503V18.3037ZM10.0003 18.3037V17.5537H8.75033V18.3037V19.0537H10.0003V18.3037ZM10.0003 17.4704L9.25033 17.4704L9.25033 18.3037L10.0003 18.3037L10.7503 18.3037L10.7503 17.4704L10.0003 17.4704ZM16.2503 9.97038V9.22038H10.0003V9.97038V10.7204H16.2503V9.97038ZM10.0003 9.97038V9.22038H3.75033V9.97038V10.7204H10.0003V9.97038ZM18.3337 7.88705H17.5837C17.5837 8.33793 17.3606 8.73678 17.0154 8.97927L17.4465 9.59298L17.8776 10.2067C18.6054 9.6954 19.0837 8.84711 19.0837 7.88705H18.3337ZM17.4465 9.59298L17.0154 8.97927C16.799 9.13127 16.5362 9.22038 16.2503 9.22038V9.97038V10.7204C16.8547 10.7204 17.4169 10.5303 17.8776 10.2067L17.4465 9.59298ZM17.5003 11.7561H18.2503C18.2503 10.6364 18.2508 10.1887 18.1937 9.52835L17.4465 9.59298L16.6993 9.65762C16.7498 10.2421 16.7503 10.6235 16.7503 11.7561H17.5003ZM10.0003 5.80373L10.0003 6.55373L15.3542 6.55372L15.3542 5.80372L15.3542 5.05372L10.0003 5.05373L10.0003 5.80373ZM15.3542 5.80372L15.3542 6.55372L15.5699 6.55371L15.5699 5.80371L15.5699 5.05371L15.3541 5.05372L15.3542 5.80372ZM15.3542 5.80372L15.3542 6.55372L16.2503 6.55372L16.2503 5.80372L16.2503 5.05372L15.3542 5.05372L15.3542 5.80372ZM4.56147 5.80372V5.05372H3.75033V5.80372V6.55372H4.56147V5.80372ZM3.75033 5.80372L3.75032 6.55372L6.87532 6.55372L6.87533 5.80372L6.87533 5.05372L3.75033 5.05372L3.75033 5.80372ZM6.87533 5.80372L6.87532 6.55372L10.0003 6.55373L10.0003 5.80373L10.0003 5.05373L6.87533 5.05372L6.87533 5.80372ZM4.56147 5.80372L4.56147 6.55372L6.87532 6.55372L6.87533 5.80372L6.87533 5.05372L4.56148 5.05372L4.56147 5.80372ZM10.0003 5.80373L10.0003 6.55373L15.5699 6.55371L15.5699 5.80371L15.5699 5.05371L10.0003 5.05373L10.0003 5.80373Z" fill="currentColor"/>
</svg>
