<svg viewBox="0 0 21 20" fill="none" xmlns="http://www.w3.org/2000/svg">
<g clip-path="url(#clip0_715_2747)">
<path d="M17.0076 14.6818C16.8319 14.5061 16.547 14.5061 16.3712 14.6818C16.1955 14.8575 16.1955 15.1425 16.3712 15.3182L17.0076 14.6818ZM19.7045 18.6515C19.8802 18.8272 20.1651 18.8272 20.3409 18.6515C20.5166 18.4758 20.5166 18.1908 20.3409 18.0151L19.7045 18.6515ZM16.3712 15.3182L19.7045 18.6515L20.3409 18.0151L17.0076 14.6818L16.3712 15.3182ZM10.0227 15.3833C6.1291 15.3833 2.97271 12.2269 2.97271 8.33325H2.07271C2.07271 12.7239 5.63204 16.2833 10.0227 16.2833V15.3833ZM17.0727 8.33325C17.0727 12.2269 13.9163 15.3833 10.0227 15.3833V16.2833C14.4134 16.2833 17.9727 12.7239 17.9727 8.33325H17.0727ZM10.0227 1.28325C13.9163 1.28325 17.0727 4.43964 17.0727 8.33325H17.9727C17.9727 3.94259 14.4134 0.383252 10.0227 0.383252V1.28325ZM10.0227 0.383252C5.63204 0.383252 2.07271 3.94259 2.07271 8.33325H2.97271C2.97271 4.43964 6.1291 1.28325 10.0227 1.28325V0.383252Z" fill="currentColor"/>
</g>
<defs>
<clipPath id="clip0_715_2747">
<rect fill="currentColor" transform="translate(0.856201)"/>
</clipPath>
</defs>
</svg>
