<svg viewBox="0 0 24 24" fill="none" xmlns="http://www.w3.org/2000/svg">
<path d="M8.97366 3.87047L9.71541 1.9617C9.8413 1.63973 10.0618 1.36345 10.3478 1.16925C10.6338 0.975054 10.9719 0.872047 11.3176 0.873801H12.7071C13.0516 0.873545 13.3881 0.97725 13.6726 1.17135C13.9571 1.36545 14.1765 1.64092 14.3019 1.9617L15.0437 3.87047L17.5162 5.30452L19.5436 4.99793C19.8826 4.94789 20.2288 5.0008 20.5374 5.14981C20.846 5.29881 21.1027 5.53704 21.2744 5.83364L21.9716 7.04022C22.1432 7.33843 22.2211 7.68141 22.1951 8.0245C22.1691 8.36759 22.0404 8.69491 21.8257 8.96383L20.5474 10.566V13.4341L21.8257 15.0363C22.0404 15.3052 22.1691 15.6325 22.1951 15.9756C22.2211 16.3187 22.1432 16.6617 21.9716 16.9599L21.2744 18.1665C21.1027 18.4631 20.846 18.7013 20.5374 18.8503C20.2288 18.9993 19.8826 19.0522 19.5436 19.0022L17.5162 18.6956L15.0437 20.1296L14.3019 22.0384C14.1765 22.3592 13.9571 22.6347 13.6726 22.8288C13.3881 23.0229 13.0516 23.1266 12.7071 23.1263H11.3176C10.9732 23.1266 10.6367 23.0229 10.3521 22.8288C10.0676 22.6347 9.84826 22.3592 9.72283 22.0384L8.98108 20.1296L6.50858 18.6956L4.48113 19.0022C4.14212 19.0522 3.79591 18.9993 3.48732 18.8503C3.17874 18.7013 2.922 18.4631 2.75038 18.1665L2.02841 16.9599C1.85677 16.6617 1.77889 16.3187 1.80491 15.9756C1.83093 15.6325 1.95964 15.3052 2.17428 15.0363L3.45257 13.4341V10.566L2.17428 8.96383C1.95964 8.69491 1.83093 8.36759 1.80491 8.0245C1.77889 7.68141 1.85677 7.33843 2.02841 7.04022L2.72565 5.83364C2.89728 5.53704 3.15401 5.29881 3.4626 5.14981C3.77118 5.0008 4.1174 4.94789 4.4564 4.99793L6.48385 5.30452L8.97366 3.87047ZM8.92174 12.0001C8.92174 12.8197 9.24736 13.6059 9.82696 14.1855C10.4066 14.7651 11.1927 15.0907 12.0124 15.0907C12.8321 15.0907 13.6182 14.7651 14.1978 14.1855C14.7774 13.6059 15.103 12.8197 15.103 12.0001C15.103 11.1804 14.7774 10.3943 14.1978 9.81465C13.6182 9.23505 12.8321 8.90943 12.0124 8.90943C11.1927 8.90943 10.4066 9.23505 9.82696 9.81465C9.24736 10.3943 8.92174 11.1804 8.92174 12.0001Z" stroke="currentColor" stroke-width="1.5" stroke-linecap="round"/>
</svg>
