<svg viewBox="0 0 20 20" fill="none" xmlns="http://www.w3.org/2000/svg">
<path d="M4.16699 5L15.8337 5C16.2939 5 16.667 4.6269 16.667 4.16667C16.667 3.70643 16.2939 3.33333 15.8337 3.33333L4.16699 3.33333C3.70675 3.33333 3.33366 3.70643 3.33366 4.16667C3.33366 4.6269 3.70675 5 4.16699 5Z" fill="currentColor"/>
<path d="M16.667 5.83337V4.16671C16.667 3.70647 16.2939 3.33337 15.8337 3.33337C15.3734 3.33337 15.0003 3.70647 15.0003 4.16671V5.83337C15.0003 6.29361 15.3734 6.66671 15.8337 6.66671C16.2939 6.66671 16.667 6.29361 16.667 5.83337Z" fill="currentColor"/>
<path d="M5 5.83337V4.16671C5 3.70647 4.6269 3.33337 4.16667 3.33337C3.70643 3.33337 3.33333 3.70647 3.33333 4.16671V5.83337C3.33333 6.29361 3.70643 6.66671 4.16667 6.66671C4.6269 6.66671 5 6.29361 5 5.83337Z" fill="currentColor"/>
<path d="M6.66634 11.6667C6.53697 11.6667 6.40938 11.6366 6.29366 11.5787C6.17795 11.5209 6.0773 11.4369 5.99967 11.3334C5.93401 11.2458 5.88624 11.1462 5.85908 11.0402C5.83192 10.9342 5.82591 10.8239 5.84138 10.7155C5.85686 10.6072 5.89352 10.503 5.94928 10.4088C6.00504 10.3146 6.07879 10.2324 6.16634 10.1667L9.49967 7.66672C9.64239 7.56243 9.81458 7.50623 9.99134 7.50623C10.1681 7.50623 10.3403 7.56243 10.483 7.66672L13.8163 10.0167C13.996 10.1442 14.1179 10.3376 14.1554 10.5546C14.1928 10.7717 14.1429 10.9947 14.0163 11.1751C13.9532 11.2652 13.8728 11.3419 13.7798 11.4008C13.6869 11.4597 13.5832 11.4996 13.4747 11.5182C13.3662 11.5368 13.2551 11.5337 13.1479 11.5091C13.0406 11.4846 12.9392 11.439 12.8497 11.3751L9.99967 9.36672L7.16634 11.5001C7.02209 11.6082 6.84665 11.6667 6.66634 11.6667Z" fill="currentColor"/>
<path d="M10.0003 17.5C9.77931 17.5 9.56735 17.4122 9.41107 17.2559C9.25479 17.0996 9.16699 16.8876 9.16699 16.6666V9.99996C9.16699 9.77895 9.25479 9.56698 9.41107 9.4107C9.56735 9.25442 9.77931 9.16663 10.0003 9.16663C10.2213 9.16663 10.4333 9.25442 10.5896 9.4107C10.7459 9.56698 10.8337 9.77895 10.8337 9.99996V16.6666C10.8337 16.8876 10.7459 17.0996 10.5896 17.2559C10.4333 17.4122 10.2213 17.5 10.0003 17.5Z" fill="currentColor"/>
</svg>
