<svg width="22" height="24" viewBox="0 0 22 24" fill="none" xmlns="http://www.w3.org/2000/svg">
<path d="M8.08504 2.96228C8.90135 0.101928 12.955 0.101928 13.7713 2.96228C14.2092 4.49666 15.7856 5.40679 17.3334 5.01882C20.2187 4.29559 22.2455 7.80618 20.1765 9.9433C19.0667 11.0897 19.0667 12.91 20.1765 14.0564C22.2455 16.1935 20.2187 19.7041 17.3334 18.9809C15.7856 18.5929 14.2092 19.503 13.7713 21.0374C12.955 23.8978 8.90135 23.8978 8.08504 21.0374C7.64715 19.503 6.07077 18.5929 4.52301 18.9809C1.63772 19.7041 -0.389125 16.1935 1.67986 14.0564C2.78973 12.91 2.78973 11.0897 1.67986 9.9433C-0.389125 7.80618 1.63772 4.29559 4.52301 5.01882C6.07077 5.40679 7.64715 4.49666 8.08504 2.96228Z" fill="#BD0BEA"/>
<path d="M14.9282 8.99984L11.4646 13.1561C10.7526 14.0106 10.3966 14.4378 9.92819 14.4378C9.45982 14.4378 9.10379 14.0106 8.39175 13.1561L6.92819 11.3998M4.52301 5.01882C6.07077 5.40679 7.64715 4.49666 8.08504 2.96228C8.90135 0.101928 12.955 0.101928 13.7713 2.96228C14.2092 4.49666 15.7856 5.40679 17.3334 5.01882C20.2187 4.29559 22.2455 7.80618 20.1765 9.9433C19.0667 11.0897 19.0667 12.91 20.1765 14.0564C22.2455 16.1935 20.2187 19.7041 17.3334 18.9809C15.7856 18.5929 14.2092 19.503 13.7713 21.0374C12.955 23.8978 8.90135 23.8978 8.08504 21.0374C7.64715 19.503 6.07077 18.5929 4.52301 18.9809C1.63772 19.7041 -0.389125 16.1935 1.67986 14.0564C2.78973 12.91 2.78973 11.0897 1.67986 9.9433C-0.389125 7.80618 1.63772 4.29559 4.52301 5.01882Z" stroke="#1F1F1F" stroke-width="1.3125" stroke-linecap="round"/>
</svg>
 